/* XPM */
static char *_a2ab513a3d74d2185d56bbd062f7a6dXHM5C4Ua4UXon4LF[] = {
/* columns rows colors chars-per-pixel */
"10 14 7 1 ",
"  c None",
". c #1B1B1B",
"X c #1B1B1B",
"o c #FFF21B",
"O c #FBC41B",
"+ c #F2741B",
"@ c white",
/* pixels */
"          ",
"...XXXX...",
"..XooooX..",
".XooOOO+X.",
".XoOOoO+X.",
".XoOo+O+X.",
".XoOo+O+X.",
".XoO+OO+X.",
".XoOOO++X.",
"..X++++X..",
"...XXXX...",
"          ",
"          ",
"          "
};
