/* XPM */
static char *dd8ca43afe72449dcbf600b93525804aL8yFdhQ1xj5sKz2d[] = {
/* columns rows colors chars-per-pixel */
"16 20 49 1 ",
"  c #000000",
". c #43272E",
"X c None",
"o c #392032",
"O c #4C2A2C",
"+ c #3B1D30",
"@ c #9A8326",
"# c #371A30",
"$ c #3C2230",
"% c #6A4F28",
"& c #51352C",
"* c #A1891F",
"= c #1D0035",
"- c #3D2030",
"; c #552F29",
": c #43262F",
"> c #42252F",
", c #8A7122",
"< c #663722",
"1 c #381A27",
"2 c #7A411C",
"3 c #77401E",
"4 c #F1DD10",
"5 c #F3E012",
"6 c #C7B119",
"7 c #D68C40",
"8 c #C36A0D",
"9 c #F4E18B",
"0 c #F4E322",
"q c #D4852B",
"w c #F5E856",
"e c #EBD614",
"r c #F8EFA7",
"t c #F6E310",
"y c #CFBA17",
"u c #8A7123",
"i c #D9C515",
"p c #6D5152",
"a c #624830",
"s c #F2DF87",
"d c #613321",
"f c #E4B578",
"g c #EBD210",
"h c #623525",
"j c #EDDD35",
"k c #A4550A",
"l c #A9917D",
"z c #EAC588",
"x c #F4D9AC",
/* pixels */
"                ",
"       ##       ",
"      +@@+      ",
"      &yy&      ",
"     +*44*+     ",
"    =%6556%=    ",
"....-ut44tu-....",
"a6666i4444i6666a",
"p90555444455509p",
"d7s0444444440s7d",
";X795444444597X;",
" OXqe444444eqXO ",
"  OXg444444gXO  ",
"  o,e44ww44e,o  ",
"  .65wrffrw56.  ",
" #@jrz7887zrj@# ",
" 1lxq8k<<k8qxl1 ",
" $X8X2.>>.2X8X$ ",
" $h3Oo    oO3h$ ",
" :oo        oo: "
};
