/* XPM */
static char *c13f4e8e419b429f9365988374c17e82TgxlPXAPuJUXuSK9[] = {
/* columns rows colors chars-per-pixel */
"14 21 9 1 ",
"  c None",
". c #0E0D0E",
"X c #D2202C",
"o c #EADFD1",
"O c #7C776F",
"+ c #B3AAA1",
"@ c #0A7030",
"# c #EBA724",
"$ c white",
/* pixels */
" .......      ",
"..XXXXX..     ",
".X..XXXX.     ",
".....XX.....  ",
"  .oooOOOOO.  ",
"  .o......... ",
"  .O.ooo++++. ",
"  .O.o.+.+.+. ",
"  .O.+.+.+.+. ",
"  .O.+.+.+.+. ",
"  .O.+++++++. ",
" ............ ",
" .@@@######.  ",
" .@@@#......  ",
" .@@@#.OOOO.  ",
" .@@@#.OOOO.  ",
" .@@@#...++.  ",
" .####...+..  ",
" ...... ...   ",
"              ",
"              "
};
