/* XPM */
static char *_060e0179eb84ac0cd7a44d71adc3ddfC5VplKUjeKOXOoXv[] = {
/* columns rows colors chars-per-pixel */
"17 17 18 1 ",
"  c None",
". c #5F472D",
"X c black",
"o c #413122",
"O c black",
"+ c #3A231F",
"@ c #1E243C",
"# c #70655A",
"$ c #9C918F",
"% c #102D63",
"& c black",
"* c #15387C",
"= c #231C19",
"- c #D89E58",
"; c #B66B3A",
": c #352B26",
"> c #67332D",
", c white",
/* pixels */
" .=============.X",
"o=-------===---=O",
"=-;;-;;;;-=-;;-=:",
"=-;;;;>;;>=-;>>=:",
"=-;>>;;;>==->>==:",
"=-;>>;;>>=======:",
"==>>>>>>==-----=:",
"=========-;;-;-=:",
"==---===-;-;;;>=:",
"=-;>;-=-;;;;>>>=:",
"=-;;;>=---;;>>>=:",
"=---;>=---;;;;>=:",
"=---;>=-;;;>;>>=:",
"=-;;>>=-;;;;>>>=:",
"=->>>==>>>>>>>=+@",
"#=============$X%",
"&&============&& "
};
